#!OML:ASF H:\Pregnant\Project 1\Capture day 1\Session 1\femalepreg.ASF
:FULLY-SPECIFIED
:DEGREES
970
root 11.0187 14.8811 5.69039 8.57597 6.91339 4.92248
lowerback -12.7712 -3.55181 -8.98108
upperback 2.24397 -3.06659 -2.14875
thorax 10.0251 -1.90512 2.06145
lowerneck -15.278 -1.64313 -2.28323
upperneck 20.8587 -3.39188 7.14307
head 9.25243 -0.987529 2.41622
rclavicle 1.69961e-014 6.36111e-015
rhumerus -43.0417 38.3715 -74.5676
rradius 123.936
rwrist 2.80744
rhand -32.1553 -4.79283
rfingers 7.12502
rthumb -5.39867 -34.7041
lclavicle 1.69961e-014 6.36111e-015
lhumerus -5.43503 -28.7396 73.7038
lradius 128.925
lwrist 48.145
lhand -22.7858 2.58867
lfingers 7.12502
lthumb 3.64991 32.5372
rfemur -50.6768 18.1781 7.95816
rtibia 64.1671
rfoot -15.4565 -15.4977
rtoes -5.89256
lfemur -17.1432 -14.0823 -31.6723
ltibia 36.5443
lfoot -21.3562 -7.55642
ltoes -0.688838
971
root 11.0027 14.8855 5.67947 8.5866 6.6202 4.85871
lowerback -12.8934 -3.59908 -9.07745
upperback 2.02237 -3.12771 -1.99808
thorax 9.87102 -1.93443 2.26797
lowerneck -15.2584 -1.46229 -2.35899
upperneck 21.1138 -3.08117 6.90997
head 9.3163 -0.870204 2.39125
rclavicle 2.56432e-014 5.08889e-014
rhumerus -42.3305 38.2957 -74.5419
rradius 123.988
rwrist 3.88638
rhand -32.1428 -4.10275
rfingers 7.12502
rthumb -5.38657 -34.0143
lclavicle 2.56432e-014 5.08889e-014
lhumerus -4.15153 -29.7783 73.8903
lradius 129.194
lwrist 48.5191
lhand -23.439 3.04758
lfingers 7.12502
lthumb 3.01918 33.0059
rfemur -50.2032 18.0158 8.19055
rtibia 64.665
rfoot -15.8243 -16.1574
rtoes -5.68517
lfemur -17.203 -14.0079 -31.5689
ltibia 36.5022
lfoot -21.3765 -7.25558
ltoes -1.37829
972
root 10.9866 14.8904 5.66941 8.59705 6.31237 4.79556
lowerback -13.0394 -3.63094 -9.12919
upperback 1.82015 -3.16866 -1.87437
thorax 9.74591 -1.95153 2.42288
lowerneck -15.2118 -1.2871 -2.43024
upperneck 21.2899 -2.78251 6.71447
head 9.34971 -0.756437 2.37574
rclavicle 1.26228e-014 -1.27222e-014
rhumerus -41.7072 38.1582 -74.5988
rradius 124.041
rwrist 4.8936
rhand -32.195 -3.34282
rfingers 7.12502
rthumb -5.43698 -33.2531
lclavicle 1.26228e-014 -1.27222e-014
lhumerus -2.82184 -30.812 73.9334
lradius 129.452
lwrist 48.979
lhand -24.2247 3.50315
lfingers 7.12502
lthumb 2.2604 33.4709
rfemur -49.6918 17.8555 8.41832
rtibia 65.0933
rfoot -16.2181 -16.8142
rtoes -5.48342
lfemur -17.2465 -13.9287 -31.4674
ltibia 36.4374
lfoot -21.3897 -6.93934
ltoes -2.1221
973
root 10.9704 14.8959 5.66013 8.60665 5.98931 4.73381
lowerback -13.2119 -3.6476 -9.13731
upperback 1.64832 -3.18864 -1.7789
thorax 9.66305 -1.95709 2.52497
lowerneck -15.1656 -1.11927 -2.50287
upperneck 21.3912 -2.50053 6.56824
head 9.35937 -0.646548 2.37415
rclavicle -9.14409e-015 1.66979e-014
rhumerus -41.1401 37.9602 -74.719
rradius 124.096
rwrist 5.7987
rhand -32.2942 -2.56334
rfingers 7.12502
rthumb -5.53279 -32.4711
lclavicle -9.14409e-015 1.66979e-014
lhumerus -1.42441 -31.8322 73.823
lradius 129.703
lwrist 49.4967
lhand -25.1602 3.95831
lfingers 7.12502
lthumb 1.35682 33.9337
rfemur -49.1436 17.6949 8.64089
rtibia 65.4535
rfoot -16.6314 -17.4536
rtoes -5.29396
lfemur -17.2739 -13.8439 -31.369
ltibia 36.3501
lfoot -21.3939 -6.60577
ltoes -2.9466
974
root 10.9542 14.9018 5.65161 8.61392 5.65156 4.67409
lowerback -13.4043 -3.64954 -9.10192
upperback 1.50614 -3.18901 -1.716
thorax 9.6174 -1.95171 2.56982
lowerneck -15.1415 -0.957942 -2.55909
upperneck 21.4442 -2.23858 6.46321
head 9.35816 -0.540492 2.38073
rclavicle 2.88238e-015 -3.06128e-014
rhumerus -40.6255 37.7026 -74.9045
rradius 124.159
rwrist 6.60068
rhand -32.42 -1.77916
rfingers 7.12502
rthumb -5.65425 -31.6837
lclavicle 2.88238e-015 -3.06128e-014
lhumerus 0.0408172 -32.8285 73.5538
lradius 129.949
lwrist 50.0483
lhand -26.1913 4.36079
lfingers 7.12502
lthumb 0.360947 34.3402
rfemur -48.5587 17.5324 8.85864
rtibia 65.7481
rfoot -17.0486 -18.0563
rtoes -5.06927
lfemur -17.2836 -13.7493 -31.2738
ltibia 36.2411
lfoot -21.3922 -6.25894
ltoes -3.84583
975
root 10.9379 14.9078 5.64374 8.61904 5.30028 4.6175
lowerback -13.6099 -3.63757 -9.02403
upperback 1.38672 -3.17189 -1.68862
thorax 9.59753 -1.93601 2.55502
lowerneck -15.1237 -0.804598 -2.58752
upperneck 21.4594 -2.00041 6.3902
head 9.34662 -0.440111 2.39001
rclavicle -3.8763e-014 -3.89618e-014
rhumerus -40.1666 37.3973 -75.1616
rradius 124.234
rwrist 7.30806
rhand -32.5567 -1.04077
rfingers 7.12502
rthumb -5.78627 -30.9418
lclavicle -3.8763e-014 -3.89618e-014
lhumerus 1.55962 -33.792 73.1351
lradius 130.198
lwrist 50.606
lhand -27.3764 4.8261
lfingers 7.12502
lthumb -0.783613 34.8044
rfemur -47.9412 17.3636 9.07172
rtibia 65.9816
rfoot -17.4334 -18.6072
rtoes -4.82494
lfemur -17.2821 -13.6482 -31.1813
ltibia 36.1232
lfoot -21.3832 -5.91859
ltoes -4.72019
976
root 10.9214 14.9141 5.63643 8.62037 4.93585 4.56369
lowerback -13.8155 -3.61521 -8.90428
upperback 1.28601 -3.14421 -1.69396
thorax 9.59248 -1.91309 2.48326
lowerneck -15.135 -0.653816 -2.58768
upperneck 21.4671 -1.77831 6.34199
head 9.3391 -0.341771 2.40102
rclavicle 5.50137e-014 -6.36111e-015
rhumerus -39.7499 37.0612 -75.481
rradius 124.324
rwrist 7.9372
rhand -32.6848 -0.380246
rfingers 7.12502
rthumb -5.90987 -30.2778
lclavicle 5.50137e-014 -6.36111e-015
lhumerus 3.12114 -34.7077 72.5752
lradius 130.459
lwrist 51.1437
lhand -28.5342 5.23816
lfingers 7.12502
lthumb -1.90181 35.2094
rfemur -47.2916 17.1892 9.28151
rtibia 66.157
rfoot -17.7464 -19.0913
rtoes -4.5434
lfemur -17.2685 -13.5386 -31.092
ltibia 35.9998
lfoot -21.3711 -5.58136
ltoes -5.58409
